{
	"asset":{
		"generator":"Khronos glTF Blender I/O v3.6.28",
		"version":"2.0"
	},
	"scene":0,
	"scenes":[
		{
			"name":"Scene",
			"nodes":[
				0,
				1,
				2
			]
		}
	],
	"nodes":[
		{
			"name":"Circle",
			"scale":[
				0.290732741355896,
				0.290732741355896,
				0.290732741355896
			],
			"translation":[
				0,
				1.0113763809204102,
				0.07977567613124847
			]
		},
		{
			"mesh":0,
			"name":"Plane.003",
			"rotation":[
				0,
				-0.9020669460296631,
				-0.4315962791442871,
				6.810415698055294e-08
			],
			"scale":[
				0.7562659382820129,
				0.9315069317817688,
				0.9233074188232422
			],
			"translation":[
				-0.026550769805908203,
				2.791476249694824,
				0.19179081916809082
			]
		},
		{
			"name":"Plane"
		}
	],
	"meshes":[
		{
			"name":"Plane.005",
			"primitives":[
				{
					"attributes":{
						"POSITION":0,
						"NORMAL":1,
						"TEXCOORD_0":2
					},
					"indices":3
				}
			]
		}
	],
	"accessors":[
		{
			"bufferView":0,
			"componentType":5126,
			"count":3339,
			"max":[
				0.5954957008361816,
				1.3367568254470825,
				1.6570751667022705
			],
			"min":[
				-0.8377280235290527,
				-2.534888982772827,
				-2.6574440002441406
			],
			"type":"VEC3"
		},
		{
			"bufferView":1,
			"componentType":5126,
			"count":3339,
			"type":"VEC3"
		},
		{
			"bufferView":2,
			"componentType":5126,
			"count":3339,
			"type":"VEC2"
		},
		{
			"bufferView":3,
			"componentType":5123,
			"count":6735,
			"type":"SCALAR"
		}
	],
	"bufferViews":[
		{
			"buffer":0,
			"byteLength":40068,
			"byteOffset":0,
			"target":34962
		},
		{
			"buffer":0,
			"byteLength":40068,
			"byteOffset":40068,
			"target":34962
		},
		{
			"buffer":0,
			"byteLength":26712,
			"byteOffset":80136,
			"target":34962
		},
		{
			"buffer":0,
			"byteLength":13470,
			"byteOffset":106848,
			"target":34963
		}
	],
	"buffers":[
		{
			"byteLength":120320,
			"uri":"Player.bin"
		}
	]
}
